<svg width="46" height="56" viewBox="0 0 46 56" fill="none" xmlns="http://www.w3.org/2000/svg">
<path fill-rule="evenodd" clip-rule="evenodd" d="M15.2422 32.592L31.1622 32.801V45.719L15.2552 45.598L15.2422 32.592Z" fill="#F9DCA4"/>
<path fill-rule="evenodd" clip-rule="evenodd" d="M45.478 45.993C42.5906 49.0916 39.0955 51.5616 35.2108 53.249C31.3261 54.9363 27.1353 55.8047 22.9 55.8C21.6173 55.7999 20.3359 55.7207 19.063 55.563C15.1422 55.0779 11.3518 53.8406 7.89997 51.919C4.96093 50.2835 2.30732 48.1811 0.0429688 45.694L1.32697 42.594L15.252 36.382C15.252 40.917 17.092 42.534 23.222 42.626C30.792 42.739 31.162 41.02 31.162 36.346L43.952 42.627L45.478 45.993Z" fill="#D5E1ED"/>
<path opacity="0.11" fill-rule="evenodd" clip-rule="evenodd" d="M31.1652 32.778V36.182C28.4152 41.096 17.1652 41.18 15.2422 32.592L31.1652 32.778Z" fill="black"/>
<path fill-rule="evenodd" clip-rule="evenodd" d="M23.1291 2.43201C44.4101 2.43201 36.1161 37.698 23.1291 37.698C10.8621 37.698 1.84807 2.43201 23.1291 2.43201Z" fill="#FFE8BE"/>
<path fill-rule="evenodd" clip-rule="evenodd" d="M10.3648 18.045C7.29481 19.385 9.90481 25.732 11.8368 25.703C11.0355 23.22 10.5412 20.6482 10.3648 18.045Z" fill="#F9DCA4"/>
<path fill-rule="evenodd" clip-rule="evenodd" d="M36.1399 18.045C39.2099 19.384 36.5999 25.732 34.6689 25.703C35.4697 23.2199 35.9637 20.6481 36.1399 18.045Z" fill="#F9DCA4"/>
<path fill-rule="evenodd" clip-rule="evenodd" d="M35.4089 23.584C35.4089 23.584 36.4749 14.868 33.3939 11.832C32.0539 15.36 25.8919 16.565 25.8919 16.565C27.0884 15.7282 28.1694 14.7373 29.1069 13.618C27.4549 14.333 22.2309 16.476 17.4969 14.779C18.7848 14.0027 19.9959 13.1057 21.1139 12.1C21.1139 12.1 16.8269 14.422 12.6739 13.842C9.68293 16.074 11.0139 23.004 11.0139 23.004C6.99993 12.417 10.6969 0.296006 23.3899 0.226006C35.7479 0.157006 39.5609 12.073 35.4089 23.584Z" fill="#ECBE6A"/>
<path fill-rule="evenodd" clip-rule="evenodd" d="M15.2549 36.179C17.2004 39.0778 19.9734 41.3238 23.2129 42.625L18.0309 47.974L11.4399 37.87L15.2549 36.179Z" fill="white"/>
<path fill-rule="evenodd" clip-rule="evenodd" d="M31.1601 36.179C29.2146 39.0777 26.4417 41.3238 23.2021 42.625L28.3831 47.974L34.9751 37.871L31.1601 36.179Z" fill="white"/>
<path fill-rule="evenodd" clip-rule="evenodd" d="M25.3658 55.7C24.5398 55.7647 23.7051 55.7973 22.8618 55.798C22.2258 55.798 21.5941 55.7793 20.9668 55.742L21.9978 46.985H24.4078L25.3658 55.7Z" fill="#3DBC93"/>
<path fill-rule="evenodd" clip-rule="evenodd" d="M20.4722 45.456L23.2092 42.639L25.9452 45.456L23.2092 48.273L20.4722 45.456Z" fill="#3DBC93"/>
</svg>
