<svg width="20" height="21" viewBox="0 0 20 21" fill="none" xmlns="http://www.w3.org/2000/svg">
<path d="M5.09764 5.81885V4.19935C5.09764 1.88671 7.20249 0 9.81702 0C12.4316 0 14.5364 1.88671 14.5364 4.19935V5.81885H17.7984C17.9479 5.81894 18.0917 5.86761 18.201 5.95506C18.3103 6.0425 18.3769 6.16223 18.3874 6.29012L19.5087 20.4607C19.5186 20.5946 19.4664 20.7264 19.3635 20.8274C19.2606 20.9284 19.1154 20.9904 18.9594 21H0.714284C0.558077 21 0.408268 20.9468 0.297813 20.852C0.187358 20.7572 0.125305 20.6287 0.125305 20.4947V20.4607L1.24663 6.29012C1.25668 6.16194 1.32308 6.04182 1.43241 5.95403C1.54175 5.86625 1.68586 5.81735 1.83561 5.81723L5.09764 5.81885ZM6.86835 5.81885H12.7676V4.19935C12.7676 2.71104 11.4462 1.51747 9.81702 1.51747C8.18789 1.51747 6.86835 2.71104 6.86835 4.19935V5.81885ZM1.97719 19.4842H17.6569L16.6979 7.33793H2.93806L1.97719 19.4842Z" fill="#676767"/>
</svg>
