<svg width="14" height="14" viewBox="0 0 14 14" fill="none" xmlns="http://www.w3.org/2000/svg">
<path d="M7.39001 13C10.7037 13 13.39 10.3137 13.39 7C13.39 3.68629 10.7037 1 7.39001 1C4.07631 1 1.39001 3.68629 1.39001 7C1.39001 10.3137 4.07631 13 7.39001 13Z" stroke="#D9D9D9" stroke-linecap="round" stroke-linejoin="round"/>
<path d="M9.39006 8.50033C9.07518 8.92 8.63624 9.22997 8.13542 9.38633C7.6346 9.5427 7.09728 9.53753 6.59956 9.37157C6.10183 9.20561 5.66894 8.88727 5.36218 8.46162C5.05542 8.03598 4.89035 7.52462 4.89035 6.99995C4.89035 6.47529 5.05541 5.96392 5.36216 5.53828C5.66891 5.11263 6.1018 4.79428 6.59953 4.62832C7.09725 4.46235 7.63457 4.45718 8.13539 4.61354C8.63622 4.7699 9.07515 5.07986 9.39004 5.49952" stroke="#D9D9D9" stroke-linecap="round" stroke-linejoin="round"/>
</svg>
