<svg width="21" height="21" viewBox="0 0 21 21" fill="none" xmlns="http://www.w3.org/2000/svg">
<path d="M20.4507 17.9913C21.1423 18.683 21.1423 19.7588 20.4507 20.4505C20.1049 20.7963 19.6822 20.95 19.2211 20.95C18.76 20.95 18.3373 20.7963 17.9915 20.4505L10.9598 13.4188L3.9281 20.4505C3.58228 20.7963 3.15961 20.95 2.69851 20.95C2.23742 20.95 1.81475 20.7963 1.46893 20.4505C0.777285 19.7588 0.777285 18.683 1.46893 17.9913L8.50063 10.9596L1.46893 3.92792C0.777285 3.23628 0.777285 2.16039 1.46893 1.46874C2.16057 0.777102 3.23646 0.777102 3.9281 1.46874L10.9598 8.50044L17.9915 1.46874C18.6831 0.777102 19.759 0.777102 20.4507 1.46874C21.1423 2.16039 21.1423 3.23628 20.4507 3.92792L13.419 10.9596L20.4507 17.9913Z" fill="#D9D9D9"/>
</svg>
