<svg width="21" height="20" viewBox="0 0 21 20" fill="none" xmlns="http://www.w3.org/2000/svg">
<path d="M10.39 7.52C9.8995 7.52 9.42002 7.66545 9.01219 7.93795C8.60435 8.21046 8.28648 8.59778 8.09878 9.05095C7.91107 9.50411 7.86196 10.0028 7.95765 10.4838C8.05334 10.9649 8.28954 11.4068 8.63637 11.7536C8.98321 12.1005 9.4251 12.3367 9.90618 12.4323C10.3872 12.528 10.8859 12.4789 11.3391 12.2912C11.7922 12.1035 12.1795 11.7856 12.452 11.3778C12.7246 10.97 12.87 10.4905 12.87 10C12.87 9.67432 12.8059 9.35183 12.6812 9.05095C12.5566 8.75006 12.3739 8.47666 12.1436 8.24638C11.9133 8.01609 11.6399 7.83341 11.3391 7.70878C11.0382 7.58415 10.7157 7.52 10.39 7.52ZM20.32 5.07C20.3147 4.29776 20.1725 3.53257 19.9 2.81C19.6993 2.28126 19.3887 1.80109 18.9888 1.40119C18.5889 1.00128 18.1087 0.690718 17.58 0.49C16.8574 0.217464 16.0922 0.0752609 15.32 0.0699999C14.03 -6.70552e-08 13.65 0 10.39 0C7.13 0 6.75 -6.70552e-08 5.46 0.0699999C4.68776 0.0752609 3.92257 0.217464 3.2 0.49C2.67126 0.690718 2.19109 1.00128 1.79118 1.40119C1.39128 1.80109 1.08072 2.28126 0.879999 2.81C0.607463 3.53257 0.46526 4.29776 0.459999 5.07C0.389999 6.36 0.389999 6.74 0.389999 10C0.389999 13.26 0.389999 13.64 0.459999 14.93C0.470763 15.705 0.612774 16.4725 0.879999 17.2C1.07983 17.7263 1.39013 18.2037 1.79 18.6C2.18819 19.0023 2.66939 19.3129 3.2 19.51C3.92257 19.7825 4.68776 19.9247 5.46 19.93C6.75 20 7.13 20 10.39 20C13.65 20 14.03 20 15.32 19.93C16.0922 19.9247 16.8574 19.7825 17.58 19.51C18.1106 19.3129 18.5918 19.0023 18.99 18.6C19.3899 18.2037 19.7002 17.7263 19.9 17.2C20.1723 16.4739 20.3144 15.7055 20.32 14.93C20.39 13.64 20.39 13.26 20.39 10C20.39 6.74 20.39 6.36 20.32 5.07ZM17.78 13.07C17.7479 13.6871 17.6162 14.295 17.39 14.87C17.1959 15.3497 16.9073 15.7854 16.5414 16.1514C16.1754 16.5173 15.7397 16.8059 15.26 17C14.6795 17.2136 14.0683 17.3318 13.45 17.35C12.66 17.35 12.45 17.35 10.39 17.35C8.33 17.35 8.12 17.35 7.33 17.35C6.71173 17.3318 6.10049 17.2136 5.52 17C5.0241 16.8157 4.57628 16.5217 4.21 16.14C3.84767 15.7813 3.56784 15.3479 3.39 14.87C3.17556 14.2901 3.06061 13.6782 3.05 13.06C3.05 12.27 3.05 12.06 3.05 10C3.05 7.94 3.05 7.73 3.05 6.94C3.06061 6.32183 3.17556 5.70988 3.39 5.13C3.57428 4.6341 3.86827 4.18628 4.25 3.82C4.61033 3.45962 5.04326 3.18009 5.52 3C6.10049 2.78641 6.71173 2.66821 7.33 2.65C8.12 2.65 8.33 2.65 10.39 2.65C12.45 2.65 12.66 2.65 13.45 2.65C14.0683 2.66821 14.6795 2.78641 15.26 3C15.7559 3.18428 16.2037 3.47827 16.57 3.86C16.9323 4.21875 17.2122 4.65213 17.39 5.13C17.6036 5.71049 17.7218 6.32173 17.74 6.94C17.74 7.73 17.74 7.94 17.74 10C17.74 12.06 17.81 12.27 17.78 13.06V13.07ZM16.18 5.63C16.0609 5.30698 15.8732 5.01364 15.6298 4.77021C15.3864 4.52678 15.093 4.33906 14.77 4.22C14.3265 4.06626 13.8593 3.99179 13.39 4C12.61 4 12.39 4 10.39 4C8.39 4 8.17 4 7.39 4C6.91827 4.00461 6.45107 4.09263 6.01 4.26C5.69193 4.37366 5.40169 4.55371 5.15858 4.7882C4.91547 5.02269 4.72506 5.30624 4.6 5.62C4.45478 6.06537 4.38383 6.5316 4.39 7C4.39 7.78 4.39 8 4.39 10C4.39 12 4.39 12.22 4.39 13C4.39991 13.4712 4.48777 13.9375 4.65 14.38C4.76906 14.703 4.95678 14.9964 5.20021 15.2398C5.44364 15.4832 5.73698 15.6709 6.06 15.79C6.48667 15.9469 6.93565 16.0347 7.39 16.05C8.17 16.05 8.39 16.05 10.39 16.05C12.39 16.05 12.61 16.05 13.39 16.05C13.8617 16.0454 14.3289 15.9574 14.77 15.79C15.093 15.6709 15.3864 15.4832 15.6298 15.2398C15.8732 14.9964 16.0609 14.703 16.18 14.38C16.3474 13.9389 16.4354 13.4717 16.44 13C16.44 12.22 16.44 12 16.44 10C16.44 8 16.44 7.78 16.44 7C16.4403 6.5278 16.3521 6.05972 16.18 5.62V5.63ZM10.39 13.82C9.88882 13.82 9.39256 13.7211 8.92966 13.529C8.46676 13.3369 8.0463 13.0554 7.69238 12.7005C7.33846 12.3457 7.05802 11.9245 6.86714 11.4611C6.67626 10.9977 6.57868 10.5012 6.58 10C6.58 9.24405 6.8043 8.5051 7.22449 7.87669C7.64468 7.24828 8.24187 6.75866 8.94047 6.46983C9.63906 6.181 10.4076 6.10594 11.1489 6.25415C11.8902 6.40236 12.5708 6.76717 13.1047 7.30241C13.6385 7.83764 14.0016 8.51924 14.1478 9.2609C14.2941 10.0026 14.217 10.771 13.9263 11.4688C13.6357 12.1666 13.1445 12.7625 12.515 13.1811C11.8855 13.5996 11.1459 13.822 10.39 13.82ZM14.39 6.93C14.1689 6.9066 13.9644 6.80222 13.8157 6.63697C13.667 6.47172 13.5847 6.25729 13.5847 6.035C13.5847 5.81271 13.667 5.59828 13.8157 5.43303C13.9644 5.26778 14.1689 5.1634 14.39 5.14C14.6111 5.1634 14.8156 5.26778 14.9643 5.43303C15.113 5.59828 15.1953 5.81271 15.1953 6.035C15.1953 6.25729 15.113 6.47172 14.9643 6.63697C14.8156 6.80222 14.6111 6.9066 14.39 6.93Z" fill="#D9D9D9"/>
</svg>
