<svg width="22" height="21" viewBox="0 0 22 21" fill="none" xmlns="http://www.w3.org/2000/svg">
<path d="M8.42842 16.6062C3.85008 16.6062 0.125305 12.8815 0.125305 8.30312C0.125305 3.72478 3.85008 0 8.42842 0C13.0068 0 16.7315 3.72478 16.7315 8.30312C16.7315 12.8815 13.0068 16.6062 8.42842 16.6062ZM8.42842 1.66062C4.76592 1.66062 1.78593 4.64061 1.78593 8.30312C1.78593 11.9656 4.76592 14.9456 8.42842 14.9456C12.0909 14.9456 15.0709 11.9656 15.0709 8.30312C15.0709 4.64061 12.0918 1.66062 8.42842 1.66062Z" fill="#676767"/>
<path d="M20.2952 21C20.1862 21.0001 20.0782 20.9787 19.9774 20.9369C19.8767 20.8952 19.7852 20.8339 19.7082 20.7567L13.3198 14.3683C13.2427 14.2912 13.1815 14.1997 13.1398 14.099C13.0981 13.9982 13.0766 13.8903 13.0766 13.7813C13.0766 13.6722 13.0981 13.5643 13.1398 13.4636C13.1815 13.3628 13.2427 13.2713 13.3198 13.1942C13.3969 13.1171 13.4884 13.056 13.5891 13.0143C13.6898 12.9726 13.7978 12.9511 13.9068 12.9511C14.0158 12.9511 14.1238 12.9726 14.2245 13.0143C14.3252 13.056 14.4168 13.1171 14.4938 13.1942L20.8823 19.5827C20.9988 19.6986 21.0782 19.8466 21.1104 20.0078C21.1427 20.1689 21.1263 20.3361 21.0634 20.4879C21.0005 20.6398 20.8939 20.7695 20.7571 20.8607C20.6204 20.9519 20.4596 21.0004 20.2952 21Z" fill="#676767"/>
</svg>
