<svg width="23" height="20" viewBox="0 0 23 20" fill="none" xmlns="http://www.w3.org/2000/svg">
<path d="M21.022 0.387998C20.6197 0.191482 20.1772 0.06651 19.7198 0.020229C19.2625 -0.0260521 18.7992 0.00726544 18.3566 0.118277C17.9139 0.229288 17.5005 0.415815 17.14 0.667191C16.7795 0.918566 16.479 1.22986 16.2556 1.58327L9.74922 11.8623L6.02552 8.59338C5.70223 8.29953 5.31551 8.06515 4.88792 7.9039C4.46034 7.74266 4.00046 7.65779 3.53511 7.65424C3.06977 7.65069 2.60827 7.72853 2.17756 7.88323C1.74686 8.03792 1.35555 8.26637 1.02649 8.55525C0.697429 8.84412 0.437197 9.18763 0.26098 9.56574C0.0847626 9.94384 -0.00391141 10.349 0.000132324 10.7575C0.00417606 11.166 0.100857 11.5697 0.284532 11.9451C0.468208 12.3204 0.7352 12.6599 1.06993 12.9437L8.07925 19.097C8.74163 19.68 9.63532 20 10.557 20L11.0424 19.9692C11.5796 19.9033 12.092 19.7287 12.5393 19.4594C12.9866 19.1901 13.3566 18.8333 13.6201 18.4171L22.3818 4.57222C22.6055 4.2191 22.7477 3.83076 22.8005 3.42937C22.8532 3.02798 22.8153 2.62141 22.6891 2.23287C22.5628 1.84432 22.3506 1.48142 22.0645 1.16487C21.7785 0.848328 21.4242 0.584345 21.022 0.387998Z" fill="#D9D9D9"/>
</svg>
