<svg width="26" height="20" viewBox="0 0 26 20" fill="none" xmlns="http://www.w3.org/2000/svg">
<path d="M25.39 2.39613C24.4504 2.79671 23.4568 3.06152 22.44 3.18232C23.5127 2.55254 24.3166 1.56178 24.7025 0.393828C23.6944 0.983542 22.591 1.39903 21.44 1.62224C20.6707 0.802362 19.6462 0.25661 18.5273 0.0705742C17.4083 -0.115462 16.2582 0.0687402 15.2572 0.594292C14.2563 1.11984 13.4612 1.95702 12.9965 2.97451C12.5319 3.99201 12.4241 5.13228 12.69 6.21649C10.6518 6.11517 8.65805 5.59363 6.83832 4.68572C5.01858 3.77781 3.41356 2.50386 2.1275 0.946612C1.67642 1.72072 1.4394 2.59738 1.44 3.48942C1.4384 4.31784 1.64527 5.13379 2.04219 5.86463C2.43912 6.59546 3.01377 7.21851 3.715 7.67829C2.89997 7.6565 2.10236 7.44158 1.39 7.0518V7.11322C1.39611 8.27394 1.80999 9.39695 2.56164 10.2923C3.31329 11.1877 4.35657 11.8004 5.515 12.0269C5.06907 12.1602 4.60609 12.2305 4.14 12.2357C3.81736 12.232 3.49553 12.2032 3.1775 12.1497C3.50739 13.1482 4.14578 14.0207 5.00384 14.646C5.86191 15.2713 6.89697 15.6182 7.965 15.6384C6.1615 17.033 3.93485 17.7941 1.64 17.8004C1.22217 17.8017 0.804669 17.7771 0.389999 17.7267C2.73303 19.2134 5.46352 20.0026 8.2525 19.9992C10.1771 20.0189 12.0864 19.6614 13.8689 18.9478C15.6514 18.2342 17.2713 17.1787 18.634 15.8429C19.9967 14.5072 21.075 12.9179 21.8057 11.1681C22.5364 9.41824 22.905 7.54283 22.89 5.65142C22.89 5.44259 22.89 5.22147 22.89 5.00036C23.8709 4.28151 24.7168 3.40027 25.39 2.39613Z" fill="#D9D9D9"/>
</svg>
