<svg width="201" height="200" viewBox="0 0 201 200" fill="none" xmlns="http://www.w3.org/2000/svg">
<path d="M196.866 155.537L127.508 16.9228C124.948 11.8352 121.026 7.5587 116.177 4.57053C111.329 1.58236 105.746 0 100.051 0C94.356 0 88.773 1.58236 83.9248 4.57053C79.0766 7.5587 75.154 11.8352 72.5947 16.9228L3.2364 155.537C0.894741 160.227 -0.208217 165.439 0.0323923 170.676C0.273002 175.913 1.84918 181.001 4.61106 185.457C7.37295 189.913 11.2287 193.589 15.8118 196.134C20.3948 198.679 25.5528 200.01 30.7953 200H169.307C174.549 200.01 179.707 198.679 184.29 196.134C188.874 193.589 192.729 189.913 195.491 185.457C198.253 181.001 199.829 175.913 200.07 170.676C200.31 165.439 199.208 160.227 196.866 155.537ZM107.325 156.049C105.362 157.921 102.764 158.982 100.051 159.02C98.7124 159.003 97.3899 158.725 96.158 158.201C94.9006 157.713 93.7517 156.982 92.7772 156.049C91.8182 155.096 91.0571 153.963 90.5378 152.714C90.0184 151.466 89.7511 150.127 89.7511 148.775C89.7511 147.423 90.0184 146.084 90.5378 144.836C91.0571 143.588 91.8182 142.454 92.7772 141.501C93.7515 140.569 94.9005 139.837 96.158 139.35C97.7131 138.699 99.4048 138.442 101.083 138.602C102.761 138.762 104.374 139.333 105.778 140.265C107.183 141.197 108.336 142.462 109.134 143.946C109.933 145.431 110.353 147.089 110.358 148.775C110.358 150.128 110.09 151.467 109.569 152.716C109.049 153.964 108.286 155.097 107.325 156.049ZM110.296 118.04C110.296 120.758 109.217 123.363 107.295 125.285C105.374 127.206 102.768 128.285 100.051 128.285C97.334 128.285 94.7282 127.206 92.8069 125.285C90.8856 123.363 89.8062 120.758 89.8062 118.04V66.8157C89.8062 64.0985 90.8856 61.4927 92.8069 59.5714C94.7282 57.6501 97.334 56.5707 100.051 56.5707C102.768 56.5707 105.374 57.6501 107.295 59.5714C109.217 61.4927 110.296 64.0985 110.296 66.8157V118.04Z" fill="url(#paint0_linear_87_377)"/>
<defs>
<linearGradient id="paint0_linear_87_377" x1="100.051" y1="-0.0018847" x2="100.051" y2="200" gradientUnits="userSpaceOnUse">
<stop stop-color="#FFA68D"/>
<stop offset="1" stop-color="#FF0E0E"/>
</linearGradient>
</defs>
</svg>
